<svg viewBox="0 0 100 150" xmlns="http://www.w3.org/2000/svg">
  <!-- Glow -->
  <circle cx="50" cy="50" r="40" fill="url(#hope-grad)" opacity="0.3" />
  <defs>
    <radialGradient id="hope-grad">
      <stop offset="0%" stop-color="#2dd4bf" />
      <stop offset="100%" stop-color="transparent" />
    </radialGradient>
  </defs>
  <!-- Head -->
  <path d="M50 35 c-9 0 -16 -7 -16 -16 s7 -16 16 -16 s16 7 16 16 s-7 16 -16 16 Z" fill="none" stroke="currentColor" stroke-width="4" stroke-linecap="round" />
  <!-- Body -->
  <path d="M50 35 l0 55" fill="none" stroke="currentColor" stroke-width="4" stroke-linecap="round" />
  <!-- Uplifted Arms -->
  <path d="M20 30 c10 10 20 5 30 5 s20 5 30 -5" fill="none" stroke="currentColor" stroke-width="5" stroke-linecap="round" stroke-linejoin="round" />
  <!-- Legs -->
  <path d="M50 90 l-15 40" fill="none" stroke="currentColor" stroke-width="4" stroke-linecap="round" />
  <path d="M50 90 l15 40" fill="none" stroke="currentColor" stroke-width="4" stroke-linecap="round" />
  <!-- Small Heart -->
  <path d="M50 60 c-2 -4 -8 -4 -8 0 c0 4 8 10 8 10 s8 -6 8 -10 c0 -4 -6 -4 -8 0" fill="#2dd4bf" stroke="#2dd4bf" stroke-width="1" />
</svg>
