<svg xmlns="http://www.w3.org/2000/svg" viewBox="0 0 512 512" fill="none">
  <g transform="scale(0.9)" transform-origin="center">
    <!-- Circular Background -->
    <circle cx="256" cy="256" r="240" fill="#ffffff" stroke="#14b8a6" stroke-width="24"/>
    
    <!-- Large Scholar Stickman Head -->
    <circle cx="256" cy="265" r="85" stroke="#0f172a" stroke-width="26" fill="none"/>
    
    <!-- Face -->
    <circle cx="226" cy="260" r="7" fill="#0f172a"/>
    <circle cx="286" cy="260" r="7" fill="#0f172a"/>
    <path d="M226 290 Q256 310 286 290" stroke="#0f172a" stroke-width="6" stroke-linecap="round" fill="none"/>

    <!-- Mortarboard Hat -->
    <path d="M140 160 L256 100 L372 160 L256 220 Z" fill="#0f172a" stroke="#0f172a" stroke-width="5" stroke-linejoin="round"/>
    
    <!-- Tassel -->
    <path d="M372 160 L372 230" stroke="#F59E0B" stroke-width="8" stroke-linecap="round"/>
    <circle cx="372" cy="245" r="10" fill="#F59E0B"/>

    <!-- The Theme-Colored Heart (Static) -->
    <path d="M410 330 C410 315 390 315 380 325 C370 315 350 315 350 330 C350 350 380 370 380 370 C380 370 410 350 410 330 Z" fill="#14b8a6"/>
    
    <!-- Wisdome Sparkle -->
    <circle cx="120" cy="380" r="8" fill="#14b8a6" opacity="0.6"/>
  </g>
</svg>
